<svg width="24" height="24" viewBox="0 0 24 24" fill="none" xmlns="http://www.w3.org/2000/svg">
<mask id="mask0_2020_19915" style="mask-type:alpha" maskUnits="userSpaceOnUse" x="0" y="0" width="24" height="24">
<rect width="24" height="24" fill="#D9D9D9"/>
</mask>
<g mask="url(#mask0_2020_19915)">
<path d="M6.38463 11.3077V6.38463H11.3077V11.3077H6.38463ZM6.38463 17.6153V12.6923H11.3077V17.6153H6.38463ZM12.6923 11.3077V6.38463H17.6153V11.3077H12.6923ZM12.6923 17.6153V12.6923H17.6153V17.6153H12.6923ZM7.88458 9.8077H9.8077V7.88458H7.88458V9.8077ZM14.1923 9.8077H16.1154V7.88458H14.1923V9.8077ZM7.88458 16.1154H9.8077V14.1923H7.88458V16.1154ZM14.1923 16.1154H16.1154V14.1923H14.1923V16.1154ZM5.3077 20.5C4.80257 20.5 4.375 20.325 4.025 19.975C3.675 19.625 3.5 19.1974 3.5 18.6923V5.3077C3.5 4.80257 3.675 4.375 4.025 4.025C4.375 3.675 4.80257 3.5 5.3077 3.5H18.6923C19.1974 3.5 19.625 3.675 19.975 4.025C20.325 4.375 20.5 4.80257 20.5 5.3077V18.6923C20.5 19.1974 20.325 19.625 19.975 19.975C19.625 20.325 19.1974 20.5 18.6923 20.5H5.3077ZM5.3077 19H18.6923C18.7692 19 18.8397 18.9679 18.9038 18.9038C18.9679 18.8397 19 18.7692 19 18.6923V5.3077C19 5.23077 18.9679 5.16024 18.9038 5.09613C18.8397 5.03203 18.7692 4.99998 18.6923 4.99998H5.3077C5.23077 4.99998 5.16024 5.03203 5.09612 5.09613C5.03202 5.16024 4.99997 5.23077 4.99997 5.3077V18.6923C4.99997 18.7692 5.03202 18.8397 5.09612 18.9038C5.16024 18.9679 5.23077 19 5.3077 19Z" fill="#132F3D"/>
</g>
</svg>
