<svg width="12" height="12" viewBox="0 0 12 12" fill="none" xmlns="http://www.w3.org/2000/svg">
<path d="M1.74391 11.3333C1.43708 11.3333 1.18088 11.2305 0.975326 11.025C0.76977 10.8194 0.666992 10.5632 0.666992 10.2564V1.74354C0.666992 1.43671 0.76977 1.18051 0.975326 0.974959C1.18088 0.769404 1.43708 0.666626 1.74391 0.666626H10.2567C10.5636 0.666626 10.8198 0.769404 11.0253 0.974959C11.2309 1.18051 11.3337 1.43671 11.3337 1.74354V10.2564C11.3337 10.5632 11.2309 10.8194 11.0253 11.025C10.8198 11.2305 10.5636 11.3333 10.2567 11.3333H1.74391ZM1.33366 3.99868H10.667V1.74354C10.667 1.64099 10.6243 1.54697 10.5388 1.46149C10.4533 1.37603 10.3593 1.33329 10.2567 1.33329H1.74391C1.64135 1.33329 1.54734 1.37603 1.46186 1.46149C1.37639 1.54697 1.33366 1.64099 1.33366 1.74354V3.99868ZM1.33366 7.33458H10.667V4.66534H1.33366V7.33458ZM1.74391 10.6666H10.2567C10.3593 10.6666 10.4533 10.6239 10.5388 10.5384C10.6243 10.4529 10.667 10.3589 10.667 10.2564V8.00124H1.33366V10.2564C1.33366 10.3589 1.37639 10.4529 1.46186 10.5384C1.54734 10.6239 1.64135 10.6666 1.74391 10.6666ZM2.51314 3.20253V2.12559H3.59008V3.20253H2.51314ZM2.51314 6.53843V5.46149H3.59008V6.53843H2.51314ZM2.51314 9.87433V8.79739H3.59008V9.87433H2.51314Z" fill="white"/>
</svg>
