<svg width="18" height="18" viewBox="0 0 18 18" fill="none" xmlns="http://www.w3.org/2000/svg">
<mask id="mask0_2321_27188" style="mask-type:alpha" maskUnits="userSpaceOnUse" x="0" y="0" width="18" height="18">
<rect width="18" height="18" fill="#D9D9D9"/>
</mask>
<g mask="url(#mask0_2321_27188)">
<path d="M5.48077 15.375C5.10674 15.375 4.78727 15.2425 4.52237 14.9776C4.25746 14.7127 4.125 14.3932 4.125 14.0192V4.49998H3.375V3.375H6.74998V2.71155H11.25V3.375H14.625V4.49998H13.875V14.0192C13.875 14.398 13.7437 14.7187 13.4812 14.9812C13.2187 15.2437 12.898 15.375 12.5192 15.375H5.48077ZM12.75 4.49998H5.24998V14.0192C5.24998 14.0865 5.27162 14.1418 5.31489 14.1851C5.35817 14.2283 5.41346 14.25 5.48077 14.25H12.5192C12.5769 14.25 12.6298 14.2259 12.6779 14.1779C12.7259 14.1298 12.75 14.0769 12.75 14.0192V4.49998ZM7.05289 12.75H8.17787V5.99998H7.05289V12.75ZM9.82209 12.75H10.9471V5.99998H9.82209V12.75Z" fill="#132F3D"/>
</g>
</svg>
