<svg width="10" height="12" viewBox="0 0 10 12" fill="none" xmlns="http://www.w3.org/2000/svg">
<path d="M2.66634 9.66667H7.33301V9H2.66634V9.66667ZM2.66634 7H7.33301V6.33333H2.66634V7ZM1.40992 12C1.10309 12 0.846897 11.8972 0.641341 11.6917C0.435786 11.4861 0.333008 11.2299 0.333008 10.9231V1.07692C0.333008 0.770083 0.435786 0.513889 0.641341 0.308333C0.846897 0.102778 1.10309 0 1.40992 0H6.66634L9.66634 3V10.9231C9.66634 11.2299 9.56356 11.4861 9.35801 11.6917C9.15245 11.8972 8.89626 12 8.58942 12H1.40992ZM6.33301 3.33333V0.666667H1.40992C1.30737 0.666667 1.21335 0.7094 1.12787 0.794867C1.04241 0.880345 0.999674 0.974361 0.999674 1.07692V10.9231C0.999674 11.0256 1.04241 11.1197 1.12787 11.2051C1.21335 11.2906 1.30737 11.3333 1.40992 11.3333H8.58942C8.69198 11.3333 8.786 11.2906 8.87147 11.2051C8.95694 11.1197 8.99967 11.0256 8.99967 10.9231V3.33333H6.33301Z" fill="white"/>
</svg>
