<svg width="12" height="12" viewBox="0 0 12 12" fill="none" xmlns="http://www.w3.org/2000/svg">
<path d="M3.40992 9.33333C3.10309 9.33333 2.8469 9.23056 2.64134 9.025C2.43579 8.81944 2.33301 8.56325 2.33301 8.25642V7.25642H2.99967V8.25642C2.99967 8.35897 3.04241 8.45299 3.12787 8.53847C3.21335 8.62393 3.30737 8.66667 3.40992 8.66667H10.5894C10.692 8.66667 10.786 8.62393 10.8715 8.53847C10.9569 8.45299 10.9997 8.35897 10.9997 8.25642V2H2.99967V3.41025H2.33301V1.07692C2.33301 0.770083 2.43579 0.513889 2.64134 0.308333C2.8469 0.102778 3.10309 0 3.40992 0H10.5894C10.8963 0 11.1525 0.102778 11.358 0.308333C11.5636 0.513889 11.6663 0.770083 11.6663 1.07692V8.25642C11.6663 8.56325 11.5636 8.81944 11.358 9.025C11.1525 9.23056 10.8963 9.33333 10.5894 9.33333H3.40992ZM1.40992 11.3333C1.10309 11.3333 0.846897 11.2306 0.641341 11.025C0.435786 10.8194 0.333008 10.5632 0.333008 10.2564V2.41025H0.999674V10.2564C0.999674 10.359 1.04241 10.453 1.12787 10.5385C1.21334 10.6239 1.30736 10.6667 1.40992 10.6667H9.25609V11.3333H1.40992ZM6.28172 7.78205L5.82276 7.32308L7.44967 5.66667H2.33301V5H7.44967L5.82276 3.34358L6.28172 2.88462L8.73044 5.33333L6.28172 7.78205Z" fill="white"/>
</svg>
