<svg width="40" height="40" viewBox="0 0 40 40" fill="none" xmlns="http://www.w3.org/2000/svg">
<path d="M20.8803 17.8941L36.3845 2.37876C36.0669 2.11135 35.7327 1.86623 35.3873 1.63782L20.0112 17.025L20.8803 17.8941Z" fill="#F7FCFC"/>
<path d="M24.4234 22.9136L18.4011 16.8969L34.273 1.00836C32.9415 0.362117 31.4429 0 29.8663 0H10.1337C4.53482 0 0 4.53482 0 10.1337V29.8663C0 35.4652 4.53482 40 10.1337 40H29.8663C35.4652 40 40 35.4652 40 29.8663V10.1337C40 9.2702 39.8941 8.43454 39.688 7.63788L24.4234 22.9136ZM13.727 27.5877L14.9805 24.3287L15.9833 25.3315L16.9861 26.3343L13.727 27.5877ZM18.4735 25.8217L15.493 22.8468L17.4875 17.8106L20.4958 20.8189L23.5097 23.8273L18.4735 25.8217Z" fill="#F7FCFC"/>
<path d="M6.17275 29.0697L7.4708 29.7159C8.5293 30.2396 9.66022 30.2507 10.7187 29.7326L12.1003 29.0641C12.1449 29.0418 12.195 29.0529 12.2285 29.0864C12.2619 29.1198 12.273 29.1699 12.2507 29.2145L11.6045 30.5126C11.0808 31.571 11.0697 32.702 11.5878 33.766L12.2563 35.1476C12.2786 35.1922 12.2675 35.2424 12.234 35.2758C12.2006 35.3092 12.1505 35.3204 12.1059 35.2981L10.8079 34.6518C9.74935 34.1282 8.61844 34.117 7.55994 34.6351L6.17832 35.3036C6.13376 35.3259 6.08362 35.3148 6.05019 35.2814C6.01676 35.2479 6.00562 35.1978 6.02791 35.1532L6.67415 33.8552C7.19782 32.7967 7.20897 31.6658 6.69086 30.6073L6.02234 29.2256C6.00005 29.1811 6.01119 29.1309 6.04462 29.0975C6.07805 29.0641 6.12819 29.0529 6.17275 29.0752" fill="#8EB5B8"/>
</svg>
