<svg width="24" height="24" viewBox="0 0 24 24" fill="none" xmlns="http://www.w3.org/2000/svg">
<mask id="mask0_2020_19906" style="mask-type:alpha" maskUnits="userSpaceOnUse" x="0" y="0" width="24" height="24">
<rect width="24" height="24" fill="#D9D9D9"/>
</mask>
<g mask="url(#mask0_2020_19906)">
<path d="M15.0653 14.4154L16.071 10.775L12.9537 8.62312L11.948 12.2635L15.0653 14.4154ZM4.30761 19.0558L3.68453 18.7616C3.16145 18.5385 2.80824 18.1629 2.62491 17.6347C2.44157 17.1065 2.46657 16.5872 2.69991 16.077L4.30761 12.6097V19.0558ZM8.49991 20.8846C7.94991 20.8846 7.47907 20.6862 7.08741 20.2894C6.69574 19.8926 6.49991 19.4192 6.49991 18.8692V13.5193L8.94413 20.2346C8.99413 20.3577 9.03901 20.4718 9.07876 20.5769C9.11849 20.6821 9.18002 20.7846 9.26336 20.8846H8.49991ZM13.2557 20.3365C12.7839 20.507 12.3185 20.4884 11.8595 20.2807C11.4005 20.0731 11.0858 19.7333 10.9153 19.2615L6.67301 7.57502C6.50249 7.10324 6.52268 6.64042 6.73358 6.18657C6.94446 5.73273 7.28581 5.42056 7.75761 5.25004L14.7249 2.70199C15.1967 2.53148 15.6595 2.55167 16.1133 2.76257C16.5672 2.97345 16.8793 3.31479 17.0499 3.78659L21.3075 15.4731C21.478 15.9449 21.4595 16.4077 21.2518 16.8615C21.0441 17.3154 20.7043 17.6276 20.2325 17.7981L13.2557 20.3365ZM12.7384 18.9135L19.7114 16.375C19.7947 16.343 19.854 16.2901 19.8893 16.2164C19.9246 16.1426 19.9262 16.0641 19.8941 15.9808L15.6403 4.30774C15.6082 4.22439 15.5553 4.16509 15.4816 4.12984C15.4079 4.09458 15.3294 4.09297 15.246 4.12502L8.28836 6.66347C8.20502 6.69552 8.14572 6.74841 8.11046 6.82214C8.07521 6.89586 8.07361 6.97439 8.10566 7.05774L12.3441 18.7308C12.3762 18.8141 12.429 18.8734 12.5028 18.9087C12.5765 18.9439 12.655 18.9455 12.7384 18.9135Z" fill="#132F3D"/>
</g>
</svg>
