<svg width="12" height="12" viewBox="0 0 12 12" fill="none" xmlns="http://www.w3.org/2000/svg">
<path d="M7.95118 7.23979L8.52553 5.15261L6.7358 3.91671L6.16143 6.00389L7.95118 7.23979ZM1.07425 10.7436L0.793483 10.618C0.440494 10.465 0.202889 10.2114 0.0806667 9.85709C-0.0415556 9.50282 -0.0248889 9.15773 0.130667 8.82184L1.07425 6.79876V10.7436ZM3.99733 11.7321C3.63067 11.7321 3.31678 11.6009 3.05567 11.3385C2.79456 11.0761 2.664 10.7616 2.664 10.3949V7.24491L4.13963 11.2988C4.17297 11.3851 4.20502 11.4622 4.2358 11.5302C4.26657 11.5981 4.30973 11.6654 4.36528 11.7321H3.99733ZM6.90502 11.0847C6.62041 11.1898 6.34434 11.1817 6.07682 11.0603C5.8093 10.9389 5.62297 10.7359 5.51785 10.4513L2.81143 3.01928C2.7063 2.73466 2.71656 2.45924 2.8422 2.19299C2.96784 1.92675 3.17297 1.74106 3.45758 1.63594L7.73067 0.0718419C8.01528 -0.0332914 8.29071 -0.0230357 8.55695 0.102609C8.8232 0.228242 9.00888 0.433369 9.114 0.717992L11.8243 8.15004C11.9294 8.43466 11.9213 8.71009 11.7999 8.97633C11.6785 9.24257 11.4755 9.42825 11.1909 9.53338L6.90502 11.0847ZM6.68195 10.4372L10.9461 8.88594C11.0572 8.84321 11.1362 8.7727 11.1832 8.67441C11.2302 8.57612 11.2324 8.47142 11.1897 8.36031L8.50118 0.962859C8.45845 0.851747 8.38793 0.772692 8.28963 0.725692C8.19135 0.678681 8.08665 0.676542 7.97553 0.719275L3.71528 2.27056C3.60417 2.31329 3.52511 2.3838 3.4781 2.48209C3.43109 2.58038 3.42895 2.68508 3.47168 2.79619L6.15632 10.1936C6.19905 10.3048 6.26956 10.3838 6.36785 10.4308C6.46614 10.4778 6.57084 10.48 6.68195 10.4372Z" fill="white"/>
</svg>
