<svg width="612" height="612" viewBox="0 0 612 612" fill="none" xmlns="http://www.w3.org/2000/svg">
<path d="M319.467 273.78L556.681 36.3953C551.823 32.304 546.709 28.5535 541.424 25.0588L306.17 260.483L319.467 273.78Z" fill="#F7FCFC"/>
<path d="M373.678 350.579L281.537 258.523L524.377 15.4279C504.005 5.54039 481.076 0 456.954 0H155.046C69.3827 0 0 69.3827 0 155.046V456.954C0 542.617 69.3827 612 155.046 612H456.954C542.617 612 612 542.617 612 456.954V155.046C612 141.834 610.38 129.048 607.227 116.86L373.678 350.579ZM210.023 422.092L229.202 372.229L244.544 387.572L259.887 402.914L210.023 422.092ZM282.645 395.072L237.043 349.556L267.558 272.502L313.586 318.53L359.699 364.558L282.645 395.072Z" fill="#F7FCFC"/>
<path d="M94.4424 444.765L114.303 454.653C130.498 462.665 147.801 462.836 163.996 454.908L185.134 444.68C185.816 444.339 186.583 444.51 187.095 445.021C187.606 445.532 187.777 446.3 187.436 446.981L177.548 466.842C169.536 483.037 169.366 500.34 177.293 516.62L187.521 537.759C187.862 538.441 187.691 539.208 187.18 539.719C186.669 540.23 185.901 540.401 185.22 540.06L165.359 530.173C149.164 522.16 131.861 521.99 115.666 529.917L94.5276 540.145C93.8457 540.486 93.0786 540.316 92.5672 539.804C92.0558 539.293 91.8853 538.526 92.2262 537.844L102.114 517.984C110.126 501.789 110.296 484.486 102.369 468.291L92.141 447.152C91.8001 446.47 91.9705 445.703 92.482 445.191C92.9934 444.68 93.7605 444.51 94.4424 444.851" fill="#8EB5B8"/>
</svg>
