<svg width="900" height="900" viewBox="0 0 900 900" fill="none" xmlns="http://www.w3.org/2000/svg">
<path d="M469.805 402.617L818.649 53.5226C811.504 47.5059 803.983 41.9906 796.212 36.8513L450.251 383.063L469.805 402.617Z" fill="#06303E"/>
<path d="M549.526 515.557L414.025 380.181L771.142 22.688C741.184 8.14763 707.465 0 671.992 0H228.008C102.033 0 0 102.033 0 228.008V671.992C0 797.967 102.033 900 228.008 900H671.992C797.967 900 900 797.967 900 671.992V228.008C900 208.579 897.618 189.777 892.98 171.852L549.526 515.557ZM308.858 620.724L337.061 547.396L359.624 569.958L382.187 592.521L308.858 620.724ZM415.655 580.989L348.593 514.053L393.468 400.738L461.156 468.426L528.969 536.114L415.655 580.989Z" fill="#06303E"/>
<path d="M138.886 654.066L168.092 668.606C191.908 680.389 217.354 680.64 241.17 668.982L272.256 653.941C273.259 653.439 274.387 653.69 275.139 654.442C275.891 655.194 276.142 656.322 275.641 657.325L261.1 686.531C249.318 710.347 249.067 735.793 260.724 759.734L275.766 790.821C276.267 791.824 276.017 792.952 275.265 793.704C274.512 794.456 273.384 794.707 272.382 794.205L243.175 779.665C219.359 767.882 193.914 767.631 170.097 779.289L139.011 794.331C138.008 794.832 136.88 794.581 136.128 793.829C135.376 793.077 135.125 791.949 135.627 790.946L150.167 761.74C161.95 737.924 162.201 712.478 150.543 688.662L135.501 657.576C135 656.573 135.251 655.445 136.003 654.693C136.755 653.941 137.883 653.69 138.886 654.191" fill="#8EB5B8"/>
</svg>
