<svg width="900" height="177" viewBox="0 0 900 177" fill="none" xmlns="http://www.w3.org/2000/svg">
<path d="M235.701 93.1552C241.402 98.8561 250.199 103.599 261.011 103.599C268.015 103.599 272.29 100.625 272.29 96.8165C272.29 92.2951 267.179 90.5259 258.751 88.7321C245.678 86.1274 227.396 82.7855 227.396 64.012C227.396 50.6935 238.675 39.1689 258.996 39.1689C271.7 39.1689 282.758 42.9777 291.187 50.2267L280.031 64.8474C273.371 59.3923 264.697 56.6401 257.694 56.6401C250.691 56.6401 248.307 59.3677 248.307 62.8079C248.307 66.9607 253.173 68.3859 261.97 70.0568C275.042 72.7844 293.103 76.5932 293.103 94.5313C293.103 110.454 281.333 121.021 260.078 121.021C244.032 121.021 232.876 116.032 224.914 108.439L235.726 93.106L235.701 93.1552Z" fill="#06303E"/>
<path d="M329.692 60.8174C342.052 60.8174 349.768 66.2725 353.208 71.3836L341.339 82.4414C339.079 79.124 335.393 76.9862 330.527 76.9862C322.935 76.9862 317.111 82.2202 317.111 90.8944C317.111 99.5685 322.935 104.925 330.527 104.925C335.393 104.925 339.079 102.542 341.339 99.3474L353.208 110.503C349.768 115.492 342.052 121.07 329.692 121.07C311.754 121.07 298.337 108.955 298.337 90.8944C298.337 72.8334 311.754 60.842 329.692 60.842" fill="#06303E"/>
<path d="M361.538 119.644V62.267H379.845V69.516C383.654 64.8963 390.903 60.8418 397.783 60.8418V78.5341C396.726 78.1656 395.178 77.9444 393.262 77.9444C388.519 77.9444 382.204 79.9594 379.845 83.2767V119.62H361.538V119.644Z" fill="#06303E"/>
<path d="M424.395 62.2671H406.089V119.644H424.395V62.2671Z" fill="#06303E"/>
<path d="M455.996 141.489H437.689V62.267H455.996V68.9262C460.517 63.4711 466.464 60.8418 472.975 60.8418C487.351 60.8418 498.162 71.5309 498.162 90.8942C498.162 110.258 487.351 121.07 472.975 121.07C466.562 121.07 460.738 118.588 455.996 112.862V141.489ZM466.906 76.9861C462.974 76.9861 458.232 79.1239 455.971 82.22V99.6912C458.232 102.665 462.974 104.925 466.906 104.925C474.032 104.925 479.487 99.593 479.487 90.9188C479.487 82.2446 474.032 77.0106 466.906 77.0106" fill="#06303E"/>
<path d="M511.604 104.188V78.1659H502.094V62.2428H511.604V46.5654H529.788V62.2428H541.435V78.1659H529.788V99.0773C529.788 102.395 531.68 104.901 534.899 104.901C536.914 104.901 538.929 104.188 539.543 103.476L543.106 117.261C540.845 119.399 536.324 121.07 529.566 121.07C517.919 121.07 511.628 115.246 511.628 104.213" fill="#06303E"/>
<path d="M615.202 119.644V83.2768H568.883V119.644H559.029V40.3975H568.883V74.5044H615.202V40.3975H625.081V119.644H615.202Z" fill="#06303E"/>
<path d="M668.206 60.8174C685.554 60.8174 695.776 74.3569 695.776 91.5824V93.8431H649.334C650.046 104.655 657.639 113.673 669.999 113.673C676.536 113.673 683.195 111.069 687.692 106.424L691.967 112.248C686.267 117.949 678.551 121.045 669.164 121.045C652.184 121.045 639.947 108.808 639.947 90.8698C639.947 74.2341 651.816 60.8174 668.23 60.8174M649.309 87.3313H686.979C686.856 78.78 681.155 68.2138 668.083 68.2138C655.846 68.2138 649.776 78.5589 649.309 87.3313Z" fill="#06303E"/>
<path d="M719.071 40.3975H710.151V119.644H719.071V40.3975Z" fill="#06303E"/>
<path d="M745.782 141.49H736.862V62.2426H745.782V70.7939C749.934 64.9702 757.061 60.8174 765.145 60.8174C780.233 60.8174 790.676 72.2191 790.676 90.8698C790.676 109.52 780.233 121.045 765.145 121.045C757.306 121.045 750.426 117.359 745.782 110.946V141.49ZM762.909 68.7789C755.906 68.7789 748.878 72.9317 745.806 77.92V103.82C748.902 108.808 755.906 113.084 762.909 113.084C774.433 113.084 781.314 103.574 781.314 90.8698C781.314 78.1657 774.433 68.7789 762.909 68.7789Z" fill="#06303E"/>
<path d="M830.017 60.8174C847.365 60.8174 857.587 74.3569 857.587 91.5824V93.8431H811.145C811.858 104.655 819.451 113.673 831.811 113.673C838.347 113.673 845.006 111.069 849.503 106.424L853.779 112.248C848.078 117.949 840.362 121.045 830.975 121.045C813.996 121.045 801.758 108.808 801.758 90.8698C801.758 74.2341 813.627 60.8174 830.042 60.8174M811.145 87.3313H848.815C848.692 78.78 842.991 68.2138 829.919 68.2138C817.681 68.2138 811.612 78.5589 811.145 87.3313Z" fill="#06303E"/>
<path d="M871.963 119.645V62.2674H880.882V71.5313C885.502 65.4618 892.161 61.0879 900 61.0879V70.2289C898.943 69.9832 897.862 69.8603 896.437 69.8603C890.982 69.8603 883.487 74.3817 880.882 79.0014V119.62H871.963V119.645Z" fill="#06303E"/>
<path fill-rule="evenodd" clip-rule="evenodd" d="M417.908 43.0762C419.677 37.965 423.363 34.3283 428.499 32.6082L434.814 30.4949C435.035 30.4212 435.158 30.2246 435.158 30.0035C435.158 29.7823 435.035 29.5857 434.814 29.512L428.179 27.2022C423.068 25.433 419.432 21.747 417.712 16.6114L415.598 10.2962C415.525 10.075 415.328 9.95215 415.107 9.95215C414.886 9.95215 414.689 10.075 414.615 10.2962L412.305 16.9308C410.536 22.0419 406.85 25.6787 401.715 27.3988L395.399 29.512C395.178 29.5857 395.055 29.7823 395.055 30.0035C395.055 30.2246 395.178 30.4212 395.399 30.4949L402.034 32.8048C407.145 34.574 410.782 38.2599 412.502 43.3956L414.615 49.7108C414.689 49.9319 414.886 50.0548 415.107 50.0548C415.328 50.0548 415.525 49.9319 415.598 49.7108L417.908 43.0762Z" fill="#8EB5B8"/>
<path d="M92.0985 78.9273L160.484 10.4923C159.084 9.3128 157.609 8.2316 156.086 7.22412L88.2651 75.0939L92.0985 78.9273Z" fill="#06303E"/>
<path d="M107.727 101.068L81.1637 74.529L151.171 4.44766C145.298 1.59723 138.688 0 131.734 0H44.6978C20.0022 0 0 20.0022 0 44.6978V131.734C0 156.43 20.0022 176.432 44.6978 176.432H131.734C156.43 176.432 176.432 156.43 176.432 131.734V44.6978C176.432 40.889 175.965 37.2031 175.056 33.6892L107.727 101.068ZM60.5472 121.684L66.076 107.309L70.4991 111.732L74.9222 116.155L60.5472 121.684ZM81.4831 113.895L68.3367 100.773L77.1337 78.5589L90.403 91.8282L103.697 105.097L81.4831 113.895Z" fill="#06303E"/>
<path d="M27.2266 128.22L32.952 131.071C37.6208 133.381 42.6091 133.43 47.2779 131.144L53.3719 128.196C53.5685 128.097 53.7897 128.147 53.9371 128.294C54.0845 128.441 54.1337 128.663 54.0354 128.859L51.1849 134.585C48.8751 139.253 48.826 144.242 51.1112 148.935L54.06 155.029C54.1582 155.226 54.1091 155.447 53.9617 155.594C53.8142 155.742 53.5931 155.791 53.3965 155.693L47.6711 152.842C43.0022 150.532 38.014 150.483 33.3452 152.768L27.2511 155.717C27.0546 155.815 26.8334 155.766 26.686 155.619C26.5385 155.471 26.4894 155.25 26.5877 155.054L29.4381 149.328C31.7479 144.659 31.7971 139.671 29.5118 135.002L26.5631 128.908C26.4648 128.712 26.514 128.491 26.6614 128.343C26.8088 128.196 27.03 128.147 27.2266 128.245" fill="#8EB5B8"/>
</svg>
