<svg width="900" height="177" viewBox="0 0 900 177" fill="none" xmlns="http://www.w3.org/2000/svg">
<path d="M235.701 93.1542C241.402 98.8551 250.199 103.598 261.011 103.598C268.014 103.598 272.29 100.624 272.29 96.8156C272.29 92.2942 267.179 90.5249 258.751 88.7311C245.678 86.1264 227.396 82.7845 227.396 64.011C227.396 50.6926 238.675 39.168 258.996 39.168C271.7 39.168 282.758 42.9767 291.187 50.2257L280.031 64.8464C273.371 59.3913 264.697 56.6392 257.694 56.6392C250.691 56.6392 248.307 59.3667 248.307 62.8069C248.307 66.9597 253.173 68.3849 261.97 70.0559C275.042 72.7834 293.103 76.5922 293.103 94.5303C293.103 110.453 281.333 121.02 260.077 121.02C244.031 121.02 232.875 116.031 224.914 108.438L235.726 93.1051L235.701 93.1542Z" fill="#F7FCFC"/>
<path d="M329.692 60.8184C342.052 60.8184 349.768 66.2735 353.208 71.3846L341.339 82.4423C339.079 79.125 335.393 76.9872 330.527 76.9872C322.934 76.9872 317.111 82.2212 317.111 90.8954C317.111 99.5695 322.934 104.926 330.527 104.926C335.393 104.926 339.079 102.543 341.339 99.3484L353.208 110.504C349.768 115.493 342.052 121.071 329.692 121.071C311.754 121.071 298.337 108.956 298.337 90.8954C298.337 72.8344 311.754 60.8429 329.692 60.8429" fill="#F7FCFC"/>
<path d="M361.538 119.645V62.2675H379.845V69.5165C383.654 64.8968 390.903 60.8423 397.783 60.8423V78.5346C396.726 78.166 395.178 77.9449 393.262 77.9449C388.519 77.9449 382.204 79.9599 379.845 83.2772V119.62H361.538V119.645Z" fill="#F7FCFC"/>
<path d="M424.395 62.2666H406.089V119.644H424.395V62.2666Z" fill="#F7FCFC"/>
<path d="M455.996 141.49H437.689V62.2675H455.996V68.9267C460.517 63.4716 466.464 60.8423 472.975 60.8423C487.351 60.8423 498.163 71.5314 498.163 90.8947C498.163 110.258 487.351 121.07 472.975 121.07C466.562 121.07 460.738 118.588 455.996 112.863V141.49ZM466.906 76.9866C462.974 76.9866 458.232 79.1244 455.971 82.2205V99.6917C458.232 102.665 462.974 104.926 466.906 104.926C474.032 104.926 479.487 99.5934 479.487 90.9193C479.487 82.2451 474.032 77.0111 466.906 77.0111" fill="#F7FCFC"/>
<path d="M511.604 104.189V78.1664H502.094V62.2433H511.604V46.5659H529.788V62.2433H541.435V78.1664H529.788V99.0778C529.788 102.395 531.68 104.902 534.899 104.902C536.914 104.902 538.929 104.189 539.543 103.476L543.106 117.262C540.845 119.399 536.324 121.07 529.566 121.07C517.919 121.07 511.628 115.247 511.628 104.213" fill="#F7FCFC"/>
<path d="M615.202 119.645V83.2778H568.883V119.645H559.029V40.3984H568.883V74.5054H615.202V40.3984H625.08V119.645H615.202Z" fill="#F7FCFC"/>
<path d="M668.206 60.8184C685.554 60.8184 695.776 74.3579 695.776 91.5834V93.8441H649.334C650.046 104.656 657.639 113.674 669.999 113.674C676.536 113.674 683.195 111.07 687.692 106.425L691.967 112.249C686.267 117.95 678.551 121.046 669.164 121.046C652.184 121.046 639.947 108.809 639.947 90.8708C639.947 74.2351 651.816 60.8184 668.23 60.8184M649.309 87.3323H686.979C686.856 78.781 681.155 68.2147 668.083 68.2147C655.846 68.2147 649.776 78.5599 649.309 87.3323Z" fill="#F7FCFC"/>
<path d="M719.071 40.3984H710.151V119.645H719.071V40.3984Z" fill="#F7FCFC"/>
<path d="M745.782 141.491H736.862V62.2436H745.782V70.7949C749.935 64.9711 757.061 60.8184 765.145 60.8184C780.233 60.8184 790.676 72.2201 790.676 90.8708C790.676 109.521 780.233 121.046 765.145 121.046C757.306 121.046 750.426 117.36 745.782 110.947V141.491ZM762.909 68.7799C755.906 68.7799 748.878 72.9327 745.806 77.921V103.821C748.902 108.809 755.906 113.085 762.909 113.085C774.433 113.085 781.314 103.575 781.314 90.8708C781.314 78.1667 774.433 68.7799 762.909 68.7799Z" fill="#F7FCFC"/>
<path d="M830.017 60.8184C847.365 60.8184 857.588 74.3579 857.588 91.5834V93.8441H811.145C811.858 104.656 819.451 113.674 831.811 113.674C838.347 113.674 845.006 111.07 849.503 106.425L853.779 112.249C848.078 117.95 840.362 121.046 830.975 121.046C813.996 121.046 801.758 108.809 801.758 90.8708C801.758 74.2351 813.627 60.8184 830.042 60.8184M811.145 87.3323H848.815C848.692 78.781 842.991 68.2147 829.919 68.2147C817.681 68.2147 811.612 78.5599 811.145 87.3323Z" fill="#F7FCFC"/>
<path d="M871.962 119.644V62.2669H880.882V71.5308C885.502 65.4613 892.161 61.0874 900 61.0874V70.2284C898.943 69.9827 897.862 69.8599 896.437 69.8599C890.982 69.8599 883.487 74.3812 880.882 79.0009V119.62H871.962V119.644Z" fill="#F7FCFC"/>
<path fill-rule="evenodd" clip-rule="evenodd" d="M417.908 43.0766C419.677 37.9655 423.363 34.3288 428.499 32.6087L434.814 30.4954C435.035 30.4217 435.158 30.2251 435.158 30.004C435.158 29.7828 435.035 29.5862 434.814 29.5125L428.179 27.2027C423.068 25.4334 419.432 21.7475 417.711 16.6118L415.598 10.2967C415.524 10.0755 415.328 9.95264 415.107 9.95264C414.886 9.95264 414.689 10.0755 414.615 10.2967L412.305 16.9313C410.536 22.0424 406.85 25.6792 401.715 27.3993L395.399 29.5125C395.178 29.5862 395.055 29.7828 395.055 30.004C395.055 30.2251 395.178 30.4217 395.399 30.4954L402.034 32.8053C407.145 34.5745 410.782 38.2604 412.502 43.3961L414.615 49.7113C414.689 49.9324 414.886 50.0553 415.107 50.0553C415.328 50.0553 415.524 49.9324 415.598 49.7113L417.908 43.0766Z" fill="#8EB5B8"/>
<path d="M92.0985 78.9287L160.484 10.4938C159.084 9.31427 157.609 8.23307 156.086 7.22559L88.2651 75.0954L92.0985 78.9287Z" fill="#F7FCFC"/>
<path d="M107.727 101.068L81.1637 74.529L151.171 4.44766C145.298 1.59723 138.688 0 131.734 0H44.6978C20.0022 0 0 20.0022 0 44.6978V131.734C0 156.43 20.0022 176.432 44.6978 176.432H131.734C156.43 176.432 176.432 156.43 176.432 131.734V44.6978C176.432 40.889 175.965 37.2031 175.056 33.6892L107.727 101.068ZM60.5472 121.684L66.076 107.309L70.4991 111.732L74.9222 116.155L60.5472 121.684ZM81.4831 113.895L68.3367 100.773L77.1337 78.5589L90.403 91.8282L103.697 105.097L81.4831 113.895Z" fill="#F7FCFC"/>
<path d="M27.2264 128.222L32.9519 131.072C37.6207 133.382 42.609 133.431 47.2778 131.146L53.3718 128.197C53.5684 128.099 53.7895 128.148 53.937 128.295C54.0844 128.443 54.1336 128.664 54.0353 128.861L51.1848 134.586C48.875 139.255 48.8258 144.243 51.1111 148.937L54.0598 155.031C54.1581 155.227 54.109 155.448 53.9615 155.596C53.8141 155.743 53.593 155.792 53.3964 155.694L47.6709 152.844C43.0021 150.534 38.0139 150.485 33.345 152.77L27.251 155.719C27.0544 155.817 26.8333 155.768 26.6858 155.62C26.5384 155.473 26.4893 155.252 26.5875 155.055L29.438 149.33C31.7478 144.661 31.797 139.673 29.5117 135.004L26.563 128.91C26.4647 128.713 26.5138 128.492 26.6613 128.345C26.8087 128.197 27.0299 128.148 27.2264 128.246" fill="#8EB5B8"/>
</svg>
