<svg width="124" height="25" viewBox="0 0 124 25" fill="none" xmlns="http://www.w3.org/2000/svg">
<path d="M2.74985 15.8956C3.78383 16.9296 5.37938 17.7898 7.34038 17.7898C8.61057 17.7898 9.38606 17.2505 9.38606 16.5597C9.38606 15.7397 8.45904 15.4188 6.93035 15.0934C4.55932 14.621 1.24344 14.0149 1.24344 10.6099C1.24344 8.19425 3.28913 6.104 6.97492 6.104C9.2791 6.104 11.2847 6.79481 12.8134 8.10958L10.79 10.7614C9.58216 9.77197 8.0089 9.27281 6.73871 9.27281C5.46851 9.27281 5.0362 9.76751 5.0362 10.3915C5.0362 11.1447 5.91865 11.4032 7.5142 11.7062C9.88523 12.2009 13.161 12.8917 13.161 16.1452C13.161 19.0333 11.0262 20.9497 7.17102 20.9497C4.26071 20.9497 2.23732 20.045 0.793304 18.6678L2.75431 15.8867L2.74985 15.8956Z" fill="#06303E"/>
<path d="M19.7972 10.0308C22.039 10.0308 23.4384 11.0202 24.0624 11.9472L21.9097 13.9528C21.4997 13.3511 20.8312 12.9634 19.9487 12.9634C18.5716 12.9634 17.5153 13.9127 17.5153 15.4859C17.5153 17.0592 18.5716 18.0308 19.9487 18.0308C20.8312 18.0308 21.4997 17.5984 21.9097 17.0191L24.0624 19.0425C23.4384 19.9472 22.039 20.9589 19.7972 20.9589C16.5437 20.9589 14.1103 18.7617 14.1103 15.4859C14.1103 12.2101 16.5437 10.0352 19.7972 10.0352" fill="#06303E"/>
<path d="M25.5732 20.7003V10.2937H28.8936V11.6084C29.5844 10.7705 30.8991 10.0352 32.1471 10.0352V13.2441C31.9554 13.1772 31.6746 13.1371 31.327 13.1371C30.4668 13.1371 29.3214 13.5026 28.8936 14.1042V20.6959H25.5732V20.7003Z" fill="#06303E"/>
<path d="M36.9738 10.2935H33.6535V20.7001H36.9738V10.2935Z" fill="#06303E"/>
<path d="M42.7053 24.6625H39.3849V10.2937H42.7053V11.5015C43.5253 10.512 44.6039 10.0352 45.7849 10.0352C48.3922 10.0352 50.3532 11.9739 50.3532 15.4859C50.3532 18.9978 48.3922 20.9588 45.7849 20.9588C44.6217 20.9588 43.5655 20.5087 42.7053 19.4703V24.6625ZM44.6841 12.9633C43.971 12.9633 43.1109 13.351 42.7008 13.9126V17.0814C43.1109 17.6207 43.971 18.0307 44.6841 18.0307C45.9766 18.0307 46.966 17.0636 46.966 15.4903C46.966 13.9171 45.9766 12.9677 44.6841 12.9677" fill="#06303E"/>
<path d="M52.7911 17.8971V13.1773H51.0663V10.2893H52.7911V7.4458H56.0891V10.2893H58.2017V13.1773H56.0891V16.97C56.0891 17.5717 56.4323 18.0263 57.0161 18.0263C57.3816 18.0263 57.7471 17.8971 57.8585 17.7678L58.5047 20.2681C58.0947 20.6558 57.2746 20.9589 56.049 20.9589C53.9365 20.9589 52.7955 19.9026 52.7955 17.9015" fill="#06303E"/>
<path d="M71.581 20.7004V14.1043H63.1799V20.7004H61.3927V6.32715H63.1799V12.5132H71.581V6.32715H73.3727V20.7004H71.581Z" fill="#06303E"/>
<path d="M81.1944 10.0308C84.3409 10.0308 86.195 12.4865 86.195 15.6107V16.0207H77.7716C77.9008 17.9817 79.278 19.6174 81.5198 19.6174C82.7053 19.6174 83.9131 19.145 84.7287 18.3026L85.5042 19.3589C84.4702 20.3929 83.0707 20.9544 81.3682 20.9544C78.2886 20.9544 76.0691 18.7349 76.0691 15.4815C76.0691 12.4642 78.2217 10.0308 81.1989 10.0308M77.7671 14.8397H84.5994C84.5771 13.2887 83.5432 11.3723 81.1721 11.3723C78.9526 11.3723 77.8518 13.2486 77.7671 14.8397Z" fill="#06303E"/>
<path d="M90.42 6.32715H88.8022V20.7004H90.42V6.32715Z" fill="#06303E"/>
<path d="M95.2646 24.6625H93.6468V10.2893H95.2646V11.8402C96.0178 10.784 97.3103 10.0308 98.7766 10.0308C101.513 10.0308 103.407 12.0987 103.407 15.4815C103.407 18.8642 101.513 20.9544 98.7766 20.9544C97.3549 20.9544 96.107 20.2859 95.2646 19.1227V24.6625ZM98.371 11.4748C97.1008 11.4748 95.8262 12.228 95.2691 13.1327V17.8302C95.8306 18.7349 97.1008 19.5104 98.371 19.5104C100.461 19.5104 101.709 17.7856 101.709 15.4815C101.709 13.1773 100.461 11.4748 98.371 11.4748Z" fill="#06303E"/>
<path d="M110.543 10.0308C113.689 10.0308 115.543 12.4865 115.543 15.6107V16.0207H107.12C107.249 17.9817 108.626 19.6174 110.868 19.6174C112.053 19.6174 113.261 19.145 114.077 18.3026L114.852 19.3589C113.818 20.3929 112.419 20.9544 110.716 20.9544C107.637 20.9544 105.417 18.7349 105.417 15.4815C105.417 12.4642 107.57 10.0308 110.547 10.0308M107.12 14.8397H113.952C113.93 13.2887 112.896 11.3723 110.525 11.3723C108.305 11.3723 107.204 13.2486 107.12 14.8397Z" fill="#06303E"/>
<path d="M118.15 20.7002V10.2935H119.768V11.9737C120.606 10.8729 121.814 10.0796 123.236 10.0796V11.7375C123.044 11.693 122.848 11.6707 122.589 11.6707C121.6 11.6707 120.241 12.4907 119.768 13.3286V20.6957H118.15V20.7002Z" fill="#06303E"/>
<path fill-rule="evenodd" clip-rule="evenodd" d="M35.7972 6.81297C36.1181 5.88596 36.7866 5.22635 37.7181 4.91437L38.8635 4.53108C38.9036 4.51771 38.9259 4.48206 38.9259 4.44194C38.9259 4.40183 38.9036 4.36618 38.8635 4.35281L37.6602 3.93387C36.7332 3.61297 36.0735 2.94445 35.7616 2.01298L35.3783 0.867571C35.3649 0.82746 35.3292 0.805176 35.2891 0.805176C35.249 0.805176 35.2134 0.82746 35.2 0.867571L34.7811 2.07091C34.4602 2.99793 33.7916 3.65754 32.8602 3.96952L31.7148 4.35281C31.6747 4.36618 31.6524 4.40183 31.6524 4.44194C31.6524 4.48206 31.6747 4.51771 31.7148 4.53108L32.9181 4.95002C33.8451 5.27091 34.5047 5.93944 34.8167 6.87091L35.2 8.01632C35.2134 8.05643 35.249 8.07871 35.2891 8.07871C35.3292 8.07871 35.3649 8.05643 35.3783 8.01632L35.7972 6.81297Z" fill="#8EB5B8"/>
</svg>
