<svg width="93" height="18" viewBox="0 0 93 18" fill="none" xmlns="http://www.w3.org/2000/svg">
<path d="M1.47618 11.3857C2.25631 12.1658 3.46012 12.8148 4.93967 12.8148C5.89801 12.8148 6.4831 12.4079 6.4831 11.8867C6.4831 11.268 5.78368 11.0259 4.63031 10.7804C2.8414 10.424 0.339624 9.96667 0.339624 7.39764C0.339624 5.57511 1.88306 3.99805 4.66393 3.99805C6.4024 3.99805 7.91557 4.51925 9.06894 5.51122L7.54232 7.51197C6.63105 6.76547 5.44406 6.38886 4.48571 6.38886C3.52737 6.38886 3.2012 6.76211 3.2012 7.23287C3.2012 7.80115 3.86699 7.99618 5.07081 8.22484C6.85971 8.59809 9.33122 9.11929 9.33122 11.574C9.33122 13.753 7.72054 15.1989 4.81188 15.1989C2.6161 15.1989 1.08948 14.5163 0 13.4772L1.47955 11.379L1.47618 11.3857Z" fill="#8EB5B8"/>
<path d="M14.3382 6.96045C16.0295 6.96045 17.0854 7.70695 17.5562 8.40637L15.932 9.91954C15.6227 9.46559 15.1183 9.17304 14.4525 9.17304C13.4134 9.17304 12.6165 9.88928 12.6165 11.0763C12.6165 12.2633 13.4134 12.9963 14.4525 12.9963C15.1183 12.9963 15.6227 12.6702 15.932 12.233L17.5562 13.7596C17.0854 14.4422 16.0295 15.2056 14.3382 15.2056C11.8835 15.2056 10.0475 13.5478 10.0475 11.0763C10.0475 8.60476 11.8835 6.96381 14.3382 6.96381" fill="#8EB5B8"/>
<path d="M18.6961 15.0108V7.15914H21.2012V8.15111C21.7224 7.51894 22.7144 6.96411 23.6559 6.96411V9.38519C23.5113 9.33475 23.2995 9.30448 23.0372 9.30448C22.3882 9.30448 21.524 9.58022 21.2012 10.0342V15.0075H18.6961V15.0108Z" fill="#8EB5B8"/>
<path d="M27.2976 7.15894H24.7925V15.0106H27.2976V7.15894Z" fill="#8EB5B8"/>
<path d="M31.6219 18.0002H29.1168V7.15914H31.6219V8.07041C32.2407 7.32391 33.0544 6.96411 33.9455 6.96411C35.9126 6.96411 37.3922 8.42684 37.3922 11.0766C37.3922 13.7263 35.9126 15.2059 33.9455 15.2059C33.0679 15.2059 32.2709 14.8662 31.6219 14.0827V18.0002ZM33.1149 9.17334C32.5769 9.17334 31.9279 9.46589 31.6186 9.88958V12.2804C31.9279 12.6873 32.5769 12.9966 33.1149 12.9966C34.0901 12.9966 34.8366 12.2669 34.8366 11.0799C34.8366 9.89294 34.0901 9.1767 33.1149 9.1767" fill="#8EB5B8"/>
<path d="M39.2315 12.8956V9.33456H37.9302V7.15559H39.2315V5.01025H41.7198V7.15559H43.3137V9.33456H41.7198V12.1961C41.7198 12.6501 41.9787 12.9931 42.4192 12.9931C42.695 12.9931 42.9707 12.8956 43.0548 12.798L43.5423 14.6845C43.233 14.977 42.6143 15.2057 41.6895 15.2057C40.0957 15.2057 39.2349 14.4087 39.2349 12.8989" fill="#8EB5B8"/>
<path d="M53.4082 15.0107V10.034H47.0697V15.0107H45.7213V4.16626H47.0697V8.83355H53.4082V4.16626H54.76V15.0107H53.4082Z" fill="#8EB5B8"/>
<path d="M60.6614 6.96045C63.0354 6.96045 64.4342 8.81324 64.4342 11.1704V11.4798H58.0789C58.1764 12.9593 59.2155 14.1934 60.9068 14.1934C61.8013 14.1934 62.7126 13.837 63.3279 13.2014L63.913 13.9984C63.1329 14.7785 62.077 15.2022 60.7925 15.2022C58.469 15.2022 56.7944 13.5276 56.7944 11.0729C56.7944 8.79643 58.4185 6.96045 60.6647 6.96045M58.0755 10.5887H63.2304C63.2136 9.41851 62.4335 7.97259 60.6446 7.97259C58.97 7.97259 58.1394 9.38825 58.0755 10.5887Z" fill="#8EB5B8"/>
<path d="M67.6219 4.16626H66.4013V15.0107H67.6219V4.16626Z" fill="#8EB5B8"/>
<path d="M71.2771 17.9999H70.0565V7.15548H71.2771V8.32567C71.8454 7.52873 72.8205 6.96045 73.9268 6.96045C75.9915 6.96045 77.4206 8.5207 77.4206 11.0729C77.4206 13.6251 75.9915 15.2022 73.9268 15.2022C72.8542 15.2022 71.9126 14.6978 71.2771 13.8202V17.9999ZM73.6208 8.04993C72.6625 8.04993 71.7008 8.61821 71.2805 9.30082V12.845C71.7042 13.5276 72.6625 14.1127 73.6208 14.1127C75.1979 14.1127 76.1394 12.8114 76.1394 11.0729C76.1394 9.33445 75.1979 8.04993 73.6208 8.04993Z" fill="#8EB5B8"/>
<path d="M82.8041 6.96045C85.1781 6.96045 86.5769 8.81324 86.5769 11.1704V11.4798H80.2216C80.3191 12.9593 81.3582 14.1934 83.0496 14.1934C83.944 14.1934 84.8553 13.837 85.4706 13.2014L86.0557 13.9984C85.2756 14.7785 84.2198 15.2022 82.9353 15.2022C80.6117 15.2022 78.9371 13.5276 78.9371 11.0729C78.9371 8.79643 80.5613 6.96045 82.8075 6.96045M80.2216 10.5887H85.3765C85.3597 9.41851 84.5796 7.97259 82.7907 7.97259C81.1161 7.97259 80.2855 9.38825 80.2216 10.5887Z" fill="#8EB5B8"/>
<path d="M88.5441 15.0104V7.15872H89.7647V8.42642C90.3969 7.59586 91.3081 6.99731 92.3808 6.99731V8.2482C92.2362 8.21458 92.0883 8.19776 91.8932 8.19776C91.1467 8.19776 90.1211 8.81648 89.7647 9.44865V15.007H88.5441V15.0104Z" fill="#8EB5B8"/>
<path fill-rule="evenodd" clip-rule="evenodd" d="M26.4099 4.53279C26.652 3.83337 27.1564 3.3357 27.8592 3.10032L28.7234 2.81114C28.7536 2.80105 28.7705 2.77415 28.7705 2.74388C28.7705 2.71362 28.7536 2.68672 28.7234 2.67663L27.8155 2.36055C27.1161 2.11844 26.6184 1.61405 26.383 0.911266L26.0938 0.0470764C26.0837 0.016813 26.0568 0 26.0266 0C25.9963 0 25.9694 0.016813 25.9593 0.0470764L25.6432 0.954979C25.4011 1.6544 24.8967 2.15207 24.1939 2.38745L23.3298 2.67663C23.2995 2.68672 23.2827 2.71362 23.2827 2.74388C23.2827 2.77415 23.2995 2.80105 23.3298 2.81114L24.2377 3.12722C24.9371 3.36933 25.4347 3.87372 25.6701 4.5765L25.9593 5.44069C25.9694 5.47096 25.9963 5.48777 26.0266 5.48777C26.0568 5.48777 26.0837 5.47096 26.0938 5.44069L26.4099 4.53279Z" fill="#8EB5B8"/>
</svg>
