<svg width="45" height="45" viewBox="0 0 45 45" fill="none" xmlns="http://www.w3.org/2000/svg">
<g clip-path="url(#clip0_2598_26382)">
<rect width="45" height="45" rx="11.5188" fill="white"/>
<rect width="45" height="45" rx="11.5188" stroke="#525252"/>
<path d="M23.4914 20.1308L40.9336 2.67609C40.5763 2.37526 40.2003 2.09949 39.8117 1.84253L22.5137 19.1531L23.4914 20.1308Z" fill="#132F3D"/>
<path d="M27.4763 25.778L20.7013 19.0092L38.5571 1.13452C37.0592 0.407504 35.3733 0.00012207 33.5996 0.00012207H11.4004C5.10167 0.00012207 0 5.10179 0 11.4005V33.5997C0 39.8985 5.10167 45.0001 11.4004 45.0001H33.5996C39.8983 45.0001 45 39.8985 45 33.5997V11.4005C45 10.4291 44.8809 9.48898 44.649 8.59274L27.4763 25.778ZM15.4429 31.0363L16.8531 27.3699L17.9812 28.498L19.1093 29.6262L15.4429 31.0363ZM20.7827 29.0496L17.4297 25.7028L19.6734 20.037L23.0578 23.4214L26.4485 26.8058L20.7827 29.0496Z" fill="#132F3D"/>
<path d="M6.94398 32.7034L8.40429 33.4304C9.5951 34.0195 10.8674 34.0321 12.0582 33.4492L13.6125 32.6971C13.6626 32.6721 13.7191 32.6846 13.7567 32.7222C13.7943 32.7598 13.8068 32.8162 13.7817 32.8663L13.0547 34.3267C12.4656 35.5175 12.453 36.7897 13.0359 37.9868L13.788 39.5411C13.8131 39.5913 13.8005 39.6477 13.7629 39.6853C13.7253 39.7229 13.6689 39.7354 13.6188 39.7104L12.1585 38.9833C10.9677 38.3942 9.69537 38.3817 8.50457 38.9645L6.95025 39.7166C6.90011 39.7417 6.8437 39.7292 6.8061 39.6916C6.76849 39.6539 6.75596 39.5975 6.78103 39.5474L7.50805 38.0871C8.09718 36.8963 8.10972 35.624 7.52685 34.4332L6.77476 32.8789C6.74969 32.8287 6.76223 32.7723 6.79983 32.7347C6.83744 32.6971 6.89384 32.6846 6.94398 32.7097" fill="#8EB5B8"/>
</g>
<defs>
<clipPath id="clip0_2598_26382">
<rect width="45" height="45" rx="11.6724" fill="white"/>
</clipPath>
</defs>
</svg>
