<svg width="137" height="168" viewBox="0 0 137 168" fill="none" xmlns="http://www.w3.org/2000/svg">
<path d="M46.264 32H42.056V21.328H46.264C49.608 21.328 51.928 23.456 51.928 26.672C51.928 29.888 49.608 32 46.264 32ZM46.264 30C48.376 30 49.608 28.48 49.608 26.672C49.608 24.784 48.456 23.328 46.264 23.328H44.328V30H46.264ZM56.9644 32.192C54.6124 32.192 52.8364 30.608 52.8364 28.128C52.8364 25.888 54.4844 24.08 56.8364 24.08C59.1404 24.08 60.7084 25.808 60.7084 28.336V28.784H54.9644C55.0924 29.76 55.8764 30.576 57.1884 30.576C57.8444 30.576 58.7564 30.288 59.2524 29.808L60.1484 31.12C59.3804 31.824 58.1644 32.192 56.9644 32.192ZM58.7404 27.408C58.6924 26.672 58.1804 25.696 56.8364 25.696C55.5724 25.696 55.0284 26.64 54.9324 27.408H58.7404ZM64.6081 32.192C63.1841 32.192 62.4161 31.456 62.4161 30.08V26.048H61.1361V24.272H62.4161V22.16H64.4641V24.272H66.0321V26.048H64.4641V29.536C64.4641 30.016 64.7201 30.384 65.1681 30.384C65.4721 30.384 65.7601 30.272 65.8721 30.16L66.3041 31.696C66.0001 31.968 65.4561 32.192 64.6081 32.192ZM73.9344 32H71.9024V31.2C71.3744 31.824 70.4624 32.192 69.4544 32.192C68.2224 32.192 66.7664 31.36 66.7664 29.632C66.7664 27.824 68.2224 27.136 69.4544 27.136C70.4784 27.136 71.3904 27.472 71.9024 28.08V27.04C71.9024 26.256 71.2304 25.744 70.2064 25.744C69.3744 25.744 68.6064 26.048 67.9504 26.656L67.1824 25.296C68.1264 24.464 69.3424 24.08 70.5584 24.08C72.3184 24.08 73.9344 24.784 73.9344 27.008V32ZM70.2704 30.816C70.9264 30.816 71.5664 30.592 71.9024 30.144V29.184C71.5664 28.736 70.9264 28.512 70.2704 28.512C69.4704 28.512 68.8144 28.928 68.8144 29.68C68.8144 30.4 69.4704 30.816 70.2704 30.816ZM76.7979 23.44C76.1419 23.44 75.5819 22.896 75.5819 22.224C75.5819 21.552 76.1419 21.024 76.7979 21.024C77.4699 21.024 78.0139 21.552 78.0139 22.224C78.0139 22.896 77.4699 23.44 76.7979 23.44ZM77.8219 32H75.7899V24.272H77.8219V32ZM81.7088 32H79.6768V21.328H81.7088V32ZM86.3476 32.192C85.0036 32.192 83.7076 31.744 82.8916 30.992L83.7716 29.568C84.3316 30.096 85.4836 30.624 86.4436 30.624C87.3236 30.624 87.7396 30.272 87.7396 29.792C87.7396 28.512 83.1476 29.552 83.1476 26.512C83.1476 25.216 84.2836 24.08 86.3156 24.08C87.6276 24.08 88.6676 24.528 89.4356 25.136L88.6196 26.528C88.1556 26.032 87.2756 25.632 86.3316 25.632C85.5956 25.632 85.1156 25.968 85.1156 26.4C85.1156 27.552 89.6916 26.592 89.6916 29.712C89.6916 31.12 88.4916 32.192 86.3476 32.192ZM45.704 86.192C43.848 86.192 42.488 85.488 41.608 84.496L42.392 83.488C43.096 84.272 44.248 85.008 45.752 85.008C47.656 85.008 48.264 83.984 48.264 83.168C48.264 80.416 41.944 81.936 41.944 78.128C41.944 76.368 43.512 75.168 45.608 75.168C47.24 75.168 48.504 75.712 49.4 76.656L48.6 77.632C47.8 76.752 46.68 76.352 45.512 76.352C44.232 76.352 43.32 77.04 43.32 78.048C43.32 80.448 49.64 79.072 49.64 83.056C49.64 84.608 48.584 86.192 45.704 86.192ZM50.8893 89.024L51.0813 87.936C51.2573 88.016 51.5453 88.064 51.7373 88.064C52.2653 88.064 52.6173 87.888 52.8893 87.248L53.4013 86.08L50.1693 78.272H51.4653L54.0413 84.608L56.6013 78.272H57.9133L54.0413 87.568C53.5773 88.688 52.7933 89.12 51.7693 89.136C51.5133 89.136 51.1133 89.088 50.8893 89.024ZM65.421 86H64.221V80.944C64.221 79.584 63.533 79.152 62.493 79.152C61.549 79.152 60.653 79.728 60.205 80.352V86H59.005V78.272H60.205V79.392C60.749 78.752 61.805 78.08 62.957 78.08C64.573 78.08 65.421 78.896 65.421 80.576V86ZM71.0335 86.192C68.6815 86.192 67.2095 84.368 67.2095 82.128C67.2095 79.888 68.6815 78.08 71.0335 78.08C73.3855 78.08 74.8575 79.888 74.8575 82.128C74.8575 84.368 73.3855 86.192 71.0335 86.192ZM71.0335 85.12C72.6815 85.12 73.5935 83.712 73.5935 82.128C73.5935 80.56 72.6815 79.152 71.0335 79.152C69.3855 79.152 68.4575 80.56 68.4575 82.128C68.4575 83.712 69.3855 85.12 71.0335 85.12ZM80.4618 86.192C79.4058 86.192 78.4778 85.696 77.8538 84.832V88.944H76.6538V78.272H77.8538V79.424C78.4138 78.64 79.3738 78.08 80.4618 78.08C82.4938 78.08 83.9018 79.616 83.9018 82.128C83.9018 84.624 82.4938 86.192 80.4618 86.192ZM80.1578 85.12C81.7098 85.12 82.6378 83.84 82.6378 82.128C82.6378 80.416 81.7098 79.152 80.1578 79.152C79.2138 79.152 78.2698 79.712 77.8538 80.384V83.872C78.2698 84.544 79.2138 85.12 80.1578 85.12ZM88.098 86.192C86.834 86.192 85.762 85.808 84.978 84.976L85.602 84.112C86.114 84.704 87.09 85.216 88.146 85.216C89.33 85.216 89.97 84.656 89.97 83.888C89.97 82.016 85.186 83.168 85.186 80.304C85.186 79.104 86.226 78.08 88.066 78.08C89.378 78.08 90.306 78.576 90.93 79.2L90.37 80.032C89.906 79.472 89.058 79.056 88.066 79.056C87.01 79.056 86.354 79.584 86.354 80.272C86.354 81.968 91.138 80.848 91.138 83.856C91.138 85.152 90.098 86.192 88.098 86.192ZM93.5195 77.168C93.0875 77.168 92.7195 76.816 92.7195 76.368C92.7195 75.92 93.0875 75.552 93.5195 75.552C93.9675 75.552 94.3355 75.92 94.3355 76.368C94.3355 76.816 93.9675 77.168 93.5195 77.168ZM94.1275 86H92.9275V78.272H94.1275V86ZM98.8093 86.192C97.5453 86.192 96.4733 85.808 95.6893 84.976L96.3133 84.112C96.8253 84.704 97.8013 85.216 98.8573 85.216C100.041 85.216 100.681 84.656 100.681 83.888C100.681 82.016 95.8973 83.168 95.8973 80.304C95.8973 79.104 96.9373 78.08 98.7773 78.08C100.089 78.08 101.017 78.576 101.641 79.2L101.081 80.032C100.617 79.472 99.7693 79.056 98.7773 79.056C97.7213 79.056 97.0653 79.584 97.0653 80.272C97.0653 81.968 101.849 80.848 101.849 83.856C101.849 85.152 100.809 86.192 98.8093 86.192ZM45.704 140.192C43.848 140.192 42.488 139.488 41.608 138.496L42.392 137.488C43.096 138.272 44.248 139.008 45.752 139.008C47.656 139.008 48.264 137.984 48.264 137.168C48.264 134.416 41.944 135.936 41.944 132.128C41.944 130.368 43.512 129.168 45.608 129.168C47.24 129.168 48.504 129.712 49.4 130.656L48.6 131.632C47.8 130.752 46.68 130.352 45.512 130.352C44.232 130.352 43.32 131.04 43.32 132.048C43.32 134.448 49.64 133.072 49.64 137.056C49.64 138.608 48.584 140.192 45.704 140.192ZM54.823 140.192C52.519 140.192 50.967 138.432 50.967 136.128C50.967 133.84 52.519 132.08 54.823 132.08C56.231 132.08 57.063 132.656 57.655 133.424L56.855 134.16C56.343 133.456 55.687 133.152 54.887 133.152C53.239 133.152 52.215 134.416 52.215 136.128C52.215 137.84 53.239 139.12 54.887 139.12C55.687 139.12 56.343 138.8 56.855 138.112L57.655 138.848C57.063 139.616 56.231 140.192 54.823 140.192ZM62.6649 140.192C60.3769 140.192 58.7289 138.544 58.7289 136.128C58.7289 133.888 60.3289 132.08 62.5369 132.08C64.8729 132.08 66.2489 133.904 66.2489 136.224V136.528H59.9929C60.0889 137.984 61.1129 139.2 62.7769 139.2C63.6569 139.2 64.5529 138.848 65.1609 138.224L65.7369 139.008C64.9689 139.776 63.9289 140.192 62.6649 140.192ZM65.0649 135.648C65.0489 134.496 64.2809 133.072 62.5209 133.072C60.8729 133.072 60.0569 134.464 59.9929 135.648H65.0649ZM74.4485 140H73.2485V134.944C73.2485 133.584 72.5605 133.152 71.5205 133.152C70.5765 133.152 69.6805 133.728 69.2325 134.352V140H68.0325V132.272H69.2325V133.392C69.7765 132.752 70.8325 132.08 71.9845 132.08C73.6005 132.08 74.4485 132.896 74.4485 134.576V140ZM80.173 140.192C77.885 140.192 76.237 138.544 76.237 136.128C76.237 133.888 77.837 132.08 80.045 132.08C82.381 132.08 83.757 133.904 83.757 136.224V136.528H77.501C77.597 137.984 78.621 139.2 80.285 139.2C81.165 139.2 82.061 138.848 82.669 138.224L83.245 139.008C82.477 139.776 81.437 140.192 80.173 140.192ZM82.573 135.648C82.557 134.496 81.789 133.072 80.029 133.072C78.381 133.072 77.565 134.464 77.501 135.648H82.573ZM87.9886 140.192C86.7246 140.192 85.6526 139.808 84.8686 138.976L85.4926 138.112C86.0046 138.704 86.9806 139.216 88.0366 139.216C89.2206 139.216 89.8606 138.656 89.8606 137.888C89.8606 136.016 85.0766 137.168 85.0766 134.304C85.0766 133.104 86.1166 132.08 87.9566 132.08C89.2686 132.08 90.1966 132.576 90.8206 133.2L90.2606 134.032C89.7966 133.472 88.9486 133.056 87.9566 133.056C86.9006 133.056 86.2446 133.584 86.2446 134.272C86.2446 135.968 91.0286 134.848 91.0286 137.856C91.0286 139.152 89.9886 140.192 87.9886 140.192Z" fill="#132F3D"/>
<path d="M12 135.5V25" stroke="#132F3D"/>
<circle cx="12" cy="25" r="10.75" fill="#96B4B7" stroke="#132F3D" stroke-width="1.5"/>
<circle cx="12" cy="80" r="7.75" fill="white" stroke="#132F3D" stroke-width="1.5"/>
<circle cx="12" cy="133" r="7.75" fill="white" stroke="#132F3D" stroke-width="1.5"/>
</svg>
